<svg xmlns="http://www.w3.org/2000/svg" width="199.646" height="58.1" viewBox="0 0 199.646 58.1">
  <g id="Logo_ingevec_blanco" transform="translate(-710 -501)">
    <path id="Trazado_27" data-name="Trazado 27" d="M6.09-7H.9V0H6.14V-1.1H2.13V-2.98H5.64v-1.1H2.13V-5.9H6.09ZM20.75-5.02V0h1.23V-7H20.67L18.54-3.69,16.41-7H15.1V0h1.21V-5L18.5-1.72h.04Zm15.95.37A2.351,2.351,0,0,0,34.04-7H31.28V0h1.23V-2.25H33.9C35.44-2.25,36.7-3.07,36.7-4.65Zm-1.25.03c0,.75-.58,1.26-1.51,1.26H32.51V-5.88h1.43C34.86-5.88,35.45-5.45,35.45-4.62ZM51.4,0,49.51-2.65a2.1,2.1,0,0,0,1.67-2.13c0-1.37-.99-2.22-2.6-2.22H45.46V0h1.23V-2.44h1.54L49.95,0ZM49.93-4.71c0,.72-.56,1.18-1.44,1.18h-1.8V-5.88h1.79C49.39-5.88,49.93-5.48,49.93-4.71ZM65.38-7H60.19V0h5.24V-1.1H61.42V-2.98h3.51v-1.1H61.42V-5.9h3.96ZM75.43-5.17c0-.47.42-.84,1.14-.84a3.179,3.179,0,0,1,1.9.72l.66-.93a3.88,3.88,0,0,0-2.54-.88A2.136,2.136,0,0,0,74.2-5.06c0,1.3.84,1.74,2.33,2.1,1.3.3,1.58.57,1.58,1.08,0,.54-.48.89-1.24.89a3.223,3.223,0,0,1-2.21-.91l-.74.88A4.312,4.312,0,0,0,76.84.1c1.47,0,2.5-.78,2.5-2.1,0-1.17-.77-1.7-2.25-2.06C75.75-4.38,75.43-4.62,75.43-5.17ZM91.91-7.05H90.77L87.69,0h1.26l.72-1.69h3.31L93.69,0h1.3Zm.62,4.27H90.12l1.2-2.8Zm12.2-2.39c0-.47.42-.84,1.14-.84a3.179,3.179,0,0,1,1.9.72l.66-.93a3.88,3.88,0,0,0-2.54-.88,2.136,2.136,0,0,0-2.39,2.04c0,1.3.84,1.74,2.33,2.1,1.3.3,1.58.57,1.58,1.08,0,.54-.48.89-1.24.89a3.223,3.223,0,0,1-2.21-.91l-.74.88A4.312,4.312,0,0,0,106.14.1c1.47,0,2.5-.78,2.5-2.1,0-1.17-.77-1.7-2.25-2.06C105.05-4.38,104.73-4.62,104.73-5.17Z" transform="translate(800 559)" fill="#fff"/>
    <path id="Trazado_12" data-name="Trazado 12" d="M245.394,271.248V275.2h.175a8.828,8.828,0,0,1,3.826-3.589,11.149,11.149,0,0,1,4.84-1.125,13.251,13.251,0,0,1,5.119.846,7.752,7.752,0,0,1,3.165,2.364,9.363,9.363,0,0,1,1.608,3.673,23.285,23.285,0,0,1,.463,4.807v17.449H256.8V283.6a9.842,9.842,0,0,0-1.1-5.244c-.719-1.146-2.023-1.722-3.884-1.722-2.126,0-3.655.629-4.6,1.892s-1.45,3.336-1.45,6.22v14.879h-7.777V271.248Z" transform="translate(498.29 246.731)" fill="#fff"/>
    <path id="Trazado_13" data-name="Trazado 13" d="M339.71,301.7a9.563,9.563,0,0,1-1.995,4.09A12,12,0,0,1,333.263,309a19.089,19.089,0,0,1-7.789,1.316,18.665,18.665,0,0,1-4.242-.518,13.419,13.419,0,0,1-3.948-1.619,10.163,10.163,0,0,1-2.976-2.825,8.305,8.305,0,0,1-1.343-4.153h7.748a4.466,4.466,0,0,0,2.129,3.049,7.829,7.829,0,0,0,3.683.853c2.19,0,3.8-.655,4.8-1.977a7.761,7.761,0,0,0,1.45-4.993V294.41h-.107a7.737,7.737,0,0,1-3.587,3.311,11.591,11.591,0,0,1-4.906,1.07,12.225,12.225,0,0,1-5.489-1.123,10.258,10.258,0,0,1-3.787-3.071,12.756,12.756,0,0,1-2.166-4.56,21.132,21.132,0,0,1-.693-5.511,17.573,17.573,0,0,1,.8-5.293,13.881,13.881,0,0,1,2.326-4.5,11.14,11.14,0,0,1,3.814-3.1,11.458,11.458,0,0,1,5.238-1.153,10.871,10.871,0,0,1,4.918,1.045,8.389,8.389,0,0,1,3.535,3.511h.107v-3.79h7.417V297.8a19.537,19.537,0,0,1-.478,3.9m-10.66-9.435a5.974,5.974,0,0,0,2.073-1.766,7.733,7.733,0,0,0,1.249-2.489,10.666,10.666,0,0,0,.4-2.934,15.746,15.746,0,0,0-.332-3.323,8.025,8.025,0,0,0-1.089-2.772,5.783,5.783,0,0,0-2.02-1.923,6.487,6.487,0,0,0-3.191-.708,5.511,5.511,0,0,0-4.8,2.439,7.578,7.578,0,0,0-1.156,2.58,12.66,12.66,0,0,0-.358,3.047,15.592,15.592,0,0,0,.3,3.042,8.755,8.755,0,0,0,1.039,2.718,6.2,6.2,0,0,0,1.951,1.973,5.555,5.555,0,0,0,3.02.774,6.219,6.219,0,0,0,2.912-.658" transform="translate(453.49 246.731)" fill="#fff"/>
    <path id="Trazado_14" data-name="Trazado 14" d="M399.9,292.818a8.032,8.032,0,0,0,9.105.521,5.068,5.068,0,0,0,2.088-2.5h6.845q-1.633,5.1-5.052,7.3a14.766,14.766,0,0,1-8.226,2.2,16.207,16.207,0,0,1-6.024-1.07,12.625,12.625,0,0,1-4.571-3.044,13.736,13.736,0,0,1-2.871-4.719,17.523,17.523,0,0,1-1.01-6.041,16.593,16.593,0,0,1,1.037-5.921,13.891,13.891,0,0,1,2.963-4.746,13.643,13.643,0,0,1,4.586-3.154,14.719,14.719,0,0,1,5.89-1.153,13.459,13.459,0,0,1,6.313,1.4,12.49,12.49,0,0,1,4.426,3.759,15.43,15.43,0,0,1,2.487,5.37,19.475,19.475,0,0,1,.544,6.315H397.974c.107,2.521.756,4.361,1.927,5.492m8.8-14.932a5.5,5.5,0,0,0-4.266-1.533,6.808,6.808,0,0,0-3.083.63,6.383,6.383,0,0,0-1.983,1.559,5.856,5.856,0,0,0-1.048,1.978,9.213,9.213,0,0,0-.346,1.871h12.669a8.877,8.877,0,0,0-1.942-4.505" transform="translate(406.207 246.731)" fill="#fff"/>
    <path id="Trazado_15" data-name="Trazado 15" d="M468.714,300.8l-9.7-28.375h8.147l5.995,19.371h.107l5.981-19.371h7.751L477.365,300.8Z" transform="translate(364.566 245.558)" fill="#fff"/>
    <path id="Trazado_16" data-name="Trazado 16" d="M537.654,292.818a8.05,8.05,0,0,0,9.116.521,4.91,4.91,0,0,0,2.088-2.5h6.849q-1.638,5.1-5.052,7.3a14.781,14.781,0,0,1-8.228,2.2,16.275,16.275,0,0,1-6.025-1.07,12.49,12.49,0,0,1-4.557-3.044,13.647,13.647,0,0,1-2.886-4.719,17.257,17.257,0,0,1-1.022-6.041,16.934,16.934,0,0,1,1.048-5.921,14.086,14.086,0,0,1,2.967-4.746,13.654,13.654,0,0,1,4.583-3.154,14.731,14.731,0,0,1,5.891-1.153,13.551,13.551,0,0,1,6.327,1.4,12.559,12.559,0,0,1,4.411,3.759,15.633,15.633,0,0,1,2.486,5.37,20.165,20.165,0,0,1,.545,6.315h-20.47c.119,2.521.757,4.35,1.927,5.492m8.826-14.932a5.543,5.543,0,0,0-4.266-1.533,6.837,6.837,0,0,0-3.1.63,6.035,6.035,0,0,0-1.979,1.559,6.115,6.115,0,0,0-1.051,1.978,11.6,11.6,0,0,0-.358,1.871h12.7a9.483,9.483,0,0,0-1.942-4.505" transform="translate(322.862 246.731)" fill="#fff"/>
    <path id="Trazado_17" data-name="Trazado 17" d="M620.488,276.353a5.5,5.5,0,0,0-3.14.855,6.683,6.683,0,0,0-2.047,2.19,9.047,9.047,0,0,0-1.129,2.961,16.6,16.6,0,0,0-.332,3.206,15.94,15.94,0,0,0,.332,3.128,9.593,9.593,0,0,0,1.078,2.885,6.031,6.031,0,0,0,1.994,2.107,5.467,5.467,0,0,0,3.084.825,5.72,5.72,0,0,0,4.307-1.559,7.452,7.452,0,0,0,1.887-4.2h7.523a12.907,12.907,0,0,1-4.4,8.621,14.151,14.151,0,0,1-9.266,2.961,15.71,15.71,0,0,1-5.861-1.07,12.867,12.867,0,0,1-4.507-2.99,13.729,13.729,0,0,1-2.924-4.58,16.028,16.028,0,0,1-1.037-5.844,19,19,0,0,1,.97-6.121,13.315,13.315,0,0,1,2.83-4.88,12.875,12.875,0,0,1,4.534-3.209,15.528,15.528,0,0,1,6.17-1.153,17.983,17.983,0,0,1,4.836.658,13.079,13.079,0,0,1,4.175,2,10.382,10.382,0,0,1,4.293,8.1h-7.615q-.76-4.889-5.756-4.885" transform="translate(275.602 246.731)" fill="#fff"/>
    <path id="Trazado_18" data-name="Trazado 18" d="M171.456,272.011v5.68l12.509,2.987v19.89h10.671V272.011Z" transform="translate(538.544 245.806)" fill="#fff"/>
    <rect id="Rectángulo_7" data-name="Rectángulo 7" width="10.928" height="10.941" transform="translate(722.308 501)" fill="#fff"/>
  </g>
</svg>
